<svg width="110" height="80" viewBox="0 0 110 80" fill="none" xmlns="http://www.w3.org/2000/svg">
<path d="M0 8C0 3.58172 3.58172 0 8 0H102C106.418 0 110 3.58172 110 8V80H0V8Z" fill="white"/>
<rect x="26" y="26" width="57" height="28" rx="3" fill="#0276C2"/>
<path d="M37.5724 44V36.176H40.2484C40.7924 36.176 41.2804 36.236 41.7124 36.356C42.1444 36.468 42.4884 36.664 42.7444 36.944C43.0004 37.224 43.1284 37.616 43.1284 38.12C43.1284 38.464 43.0364 38.804 42.8524 39.14C42.6764 39.468 42.4284 39.692 42.1084 39.812V39.86C42.5084 39.964 42.8404 40.168 43.1044 40.472C43.3764 40.768 43.5124 41.176 43.5124 41.696C43.5124 42.232 43.3764 42.668 43.1044 43.004C42.8324 43.34 42.4684 43.592 42.0124 43.76C41.5564 43.92 41.0444 44 40.4764 44H37.5724ZM39.3364 39.308H40.1644C40.5964 39.308 40.9084 39.224 41.1004 39.056C41.3004 38.888 41.4004 38.664 41.4004 38.384C41.4004 38.08 41.3004 37.864 41.1004 37.736C40.9004 37.608 40.5924 37.544 40.1764 37.544H39.3364V39.308ZM39.3364 42.632H40.3324C41.3004 42.632 41.7844 42.28 41.7844 41.576C41.7844 41.232 41.6644 40.988 41.4244 40.844C41.1844 40.692 40.8204 40.616 40.3324 40.616H39.3364V42.632ZM46.4821 44.144C45.8341 44.144 45.3621 43.932 45.0661 43.508C44.7781 43.076 44.6341 42.488 44.6341 41.744V38.048H46.3981V41.516C46.3981 41.94 46.4581 42.236 46.5781 42.404C46.6981 42.564 46.8861 42.644 47.1421 42.644C47.3661 42.644 47.5541 42.592 47.7061 42.488C47.8581 42.384 48.0221 42.216 48.1981 41.984V38.048H49.9621V44H48.5221L48.3901 43.172H48.3541C48.1061 43.468 47.8341 43.704 47.5381 43.88C47.2421 44.056 46.8901 44.144 46.4821 44.144ZM53.8064 44.144C53.0704 44.144 52.5424 43.932 52.2224 43.508C51.9104 43.084 51.7544 42.528 51.7544 41.84V39.428H50.9384V38.12L51.8504 38.048L52.0544 36.464H53.5184V38.048H54.9464V39.428H53.5184V41.816C53.5184 42.152 53.5864 42.396 53.7224 42.548C53.8664 42.692 54.0544 42.764 54.2864 42.764C54.3824 42.764 54.4784 42.752 54.5744 42.728C54.6784 42.704 54.7704 42.676 54.8504 42.644L55.1264 43.928C54.9744 43.976 54.7864 44.024 54.5624 44.072C54.3464 44.12 54.0944 44.144 53.8064 44.144ZM58.1658 44.144C57.4298 44.144 56.9018 43.932 56.5818 43.508C56.2698 43.084 56.1138 42.528 56.1138 41.84V39.428H55.2978V38.12L56.2098 38.048L56.4138 36.464H57.8778V38.048H59.3058V39.428H57.8778V41.816C57.8778 42.152 57.9458 42.396 58.0818 42.548C58.2258 42.692 58.4138 42.764 58.6458 42.764C58.7418 42.764 58.8378 42.752 58.9338 42.728C59.0378 42.704 59.1298 42.676 59.2098 42.644L59.4858 43.928C59.3338 43.976 59.1458 44.024 58.9218 44.072C58.7058 44.12 58.4538 44.144 58.1658 44.144ZM62.8126 44.144C62.3086 44.144 61.8326 44.024 61.3846 43.784C60.9446 43.536 60.5886 43.18 60.3166 42.716C60.0446 42.244 59.9086 41.68 59.9086 41.024C59.9086 40.36 60.0446 39.796 60.3166 39.332C60.5886 38.868 60.9446 38.516 61.3846 38.276C61.8326 38.028 62.3086 37.904 62.8126 37.904C63.3166 37.904 63.7886 38.028 64.2286 38.276C64.6686 38.516 65.0246 38.868 65.2966 39.332C65.5686 39.796 65.7046 40.36 65.7046 41.024C65.7046 41.68 65.5686 42.244 65.2966 42.716C65.0246 43.18 64.6686 43.536 64.2286 43.784C63.7886 44.024 63.3166 44.144 62.8126 44.144ZM62.8126 42.716C63.1726 42.716 63.4446 42.564 63.6286 42.26C63.8126 41.948 63.9046 41.536 63.9046 41.024C63.9046 40.504 63.8126 40.092 63.6286 39.788C63.4446 39.484 63.1726 39.332 62.8126 39.332C62.4446 39.332 62.1686 39.484 61.9846 39.788C61.8086 40.092 61.7206 40.504 61.7206 41.024C61.7206 41.536 61.8086 41.948 61.9846 42.26C62.1686 42.564 62.4446 42.716 62.8126 42.716ZM66.9128 44V38.048H68.3528L68.4728 38.804H68.5208C68.7768 38.564 69.0568 38.356 69.3608 38.18C69.6728 37.996 70.0288 37.904 70.4288 37.904C71.0768 37.904 71.5448 38.12 71.8328 38.552C72.1288 38.976 72.2768 39.56 72.2768 40.304V44H70.5128V40.532C70.5128 40.1 70.4528 39.804 70.3328 39.644C70.2208 39.484 70.0368 39.404 69.7808 39.404C69.5568 39.404 69.3648 39.456 69.2048 39.56C69.0448 39.656 68.8688 39.796 68.6768 39.98V44H66.9128Z" fill="white"/>
</svg>
