<svg width="110" height="80" viewBox="0 0 110 80" fill="none" xmlns="http://www.w3.org/2000/svg">
<path d="M0 8C0 3.58172 3.58172 0 8 0H102C106.418 0 110 3.58172 110 8V80H0V8Z" fill="white"/>
<rect x="16.5" y="35.5" width="77" height="27" rx="3.5" fill="#ECF7FF" stroke="#0276C2"/>
<path d="M16.81 31V25.096H17.557V30.361H20.14V31H16.81ZM22.123 31.108C21.757 31.108 21.451 31 21.205 30.784C20.965 30.562 20.845 30.256 20.845 29.866C20.845 29.386 21.058 29.02 21.484 28.768C21.916 28.51 22.597 28.33 23.527 28.228C23.527 28.042 23.5 27.865 23.446 27.697C23.398 27.529 23.308 27.394 23.176 27.292C23.05 27.184 22.867 27.13 22.627 27.13C22.375 27.13 22.138 27.178 21.916 27.274C21.694 27.37 21.496 27.478 21.322 27.598L21.034 27.085C21.238 26.953 21.487 26.827 21.781 26.707C22.081 26.581 22.405 26.518 22.753 26.518C23.287 26.518 23.674 26.683 23.914 27.013C24.154 27.337 24.274 27.772 24.274 28.318V31H23.662L23.599 30.478H23.572C23.368 30.646 23.143 30.793 22.897 30.919C22.657 31.045 22.399 31.108 22.123 31.108ZM22.339 30.514C22.549 30.514 22.747 30.463 22.933 30.361C23.119 30.259 23.317 30.115 23.527 29.929V28.714C22.801 28.804 22.291 28.939 21.997 29.119C21.709 29.299 21.565 29.53 21.565 29.812C21.565 30.058 21.64 30.238 21.79 30.352C21.94 30.46 22.123 30.514 22.339 30.514ZM27.5851 31.108C27.3811 31.108 27.1681 31.06 26.9461 30.964C26.7301 30.862 26.5261 30.724 26.3341 30.55H26.3071L26.2441 31H25.6501V24.592H26.3881V26.338L26.3701 27.13C26.5681 26.956 26.7841 26.812 27.0181 26.698C27.2581 26.578 27.4981 26.518 27.7381 26.518C28.3081 26.518 28.7401 26.719 29.0341 27.121C29.3281 27.523 29.4751 28.063 29.4751 28.741C29.4751 29.239 29.3851 29.665 29.2051 30.019C29.0311 30.373 28.8001 30.643 28.5121 30.829C28.2301 31.015 27.9211 31.108 27.5851 31.108ZM27.4591 30.487C27.8191 30.487 28.1161 30.334 28.3501 30.028C28.5901 29.716 28.7101 29.29 28.7101 28.75C28.7101 28.27 28.6201 27.883 28.4401 27.589C28.2661 27.289 27.9721 27.139 27.5581 27.139C27.3721 27.139 27.1831 27.19 26.9911 27.292C26.7991 27.394 26.5981 27.541 26.3881 27.733V30.028C26.5801 30.196 26.7691 30.316 26.9551 30.388C27.1471 30.454 27.3151 30.487 27.4591 30.487ZM32.3977 31.108C32.0077 31.108 31.6537 31.018 31.3357 30.838C31.0177 30.652 30.7657 30.388 30.5797 30.046C30.3937 29.704 30.3007 29.296 30.3007 28.822C30.3007 28.342 30.3937 27.931 30.5797 27.589C30.7717 27.247 31.0177 26.983 31.3177 26.797C31.6177 26.611 31.9327 26.518 32.2627 26.518C32.8207 26.518 33.2497 26.704 33.5497 27.076C33.8557 27.448 34.0087 27.946 34.0087 28.57C34.0087 28.648 34.0057 28.726 33.9997 28.804C33.9997 28.876 33.9937 28.939 33.9817 28.993H31.0297C31.0597 29.455 31.2037 29.824 31.4617 30.1C31.7257 30.376 32.0677 30.514 32.4877 30.514C32.6977 30.514 32.8897 30.484 33.0637 30.424C33.2437 30.358 33.4147 30.274 33.5767 30.172L33.8377 30.658C33.6517 30.778 33.4387 30.883 33.1987 30.973C32.9647 31.063 32.6977 31.108 32.3977 31.108ZM31.0207 28.462H33.3607C33.3607 28.018 33.2647 27.682 33.0727 27.454C32.8867 27.22 32.6227 27.103 32.2807 27.103C31.9747 27.103 31.6987 27.223 31.4527 27.463C31.2127 27.697 31.0687 28.03 31.0207 28.462ZM35.8726 31.108C35.5966 31.108 35.3956 31.024 35.2696 30.856C35.1496 30.682 35.0896 30.436 35.0896 30.118V24.592H35.8276V30.172C35.8276 30.286 35.8486 30.37 35.8906 30.424C35.9326 30.472 35.9806 30.496 36.0346 30.496C36.0586 30.496 36.0796 30.496 36.0976 30.496C36.1216 30.49 36.1546 30.484 36.1966 30.478L36.2956 31.036C36.2476 31.06 36.1906 31.078 36.1246 31.09C36.0586 31.102 35.9746 31.108 35.8726 31.108Z" fill="#0276C2"/>
<path d="M23.52 53V52.363C24.352 51.531 25.0583 50.803 25.639 50.179C26.2197 49.5463 26.6617 48.9787 26.965 48.476C27.2683 47.9647 27.42 47.488 27.42 47.046C27.42 46.5693 27.29 46.1793 27.03 45.876C26.77 45.5727 26.3757 45.421 25.847 45.421C25.5003 45.421 25.1797 45.5207 24.885 45.72C24.5903 45.9107 24.3217 46.1447 24.079 46.422L23.468 45.811C23.8147 45.4297 24.183 45.1263 24.573 44.901C24.9717 44.667 25.4397 44.55 25.977 44.55C26.7483 44.55 27.355 44.7753 27.797 45.226C28.239 45.668 28.46 46.2573 28.46 46.994C28.46 47.514 28.3127 48.0427 28.018 48.58C27.732 49.1087 27.3333 49.6677 26.822 50.257C26.3193 50.8377 25.7387 51.4703 25.08 52.155C25.3053 52.1377 25.5393 52.1203 25.782 52.103C26.0247 52.0857 26.2543 52.077 26.471 52.077H28.876V53H23.52ZM32.6989 53.156C31.8669 53.156 31.2126 52.7833 30.7359 52.038C30.2679 51.284 30.0339 50.2137 30.0339 48.827C30.0339 47.4317 30.2679 46.37 30.7359 45.642C31.2126 44.914 31.8669 44.55 32.6989 44.55C33.5222 44.55 34.1679 44.914 34.6359 45.642C35.1126 46.37 35.3509 47.4317 35.3509 48.827C35.3509 50.2137 35.1126 51.284 34.6359 52.038C34.1679 52.7833 33.5222 53.156 32.6989 53.156ZM32.6989 52.298C33.1842 52.298 33.5742 52.025 33.8689 51.479C34.1636 50.9243 34.3109 50.0403 34.3109 48.827C34.3109 47.6137 34.1636 46.7427 33.8689 46.214C33.5742 45.6767 33.1842 45.408 32.6989 45.408C32.2136 45.408 31.8192 45.6767 31.5159 46.214C31.2212 46.7427 31.0739 47.6137 31.0739 48.827C31.0739 50.0403 31.2212 50.9243 31.5159 51.479C31.8192 52.025 32.2136 52.298 32.6989 52.298ZM36.4438 53V52.363C37.2758 51.531 37.9822 50.803 38.5628 50.179C39.1435 49.5463 39.5855 48.9787 39.8888 48.476C40.1922 47.9647 40.3438 47.488 40.3438 47.046C40.3438 46.5693 40.2138 46.1793 39.9538 45.876C39.6938 45.5727 39.2995 45.421 38.7708 45.421C38.4242 45.421 38.1035 45.5207 37.8088 45.72C37.5142 45.9107 37.2455 46.1447 37.0028 46.422L36.3918 45.811C36.7385 45.4297 37.1068 45.1263 37.4968 44.901C37.8955 44.667 38.3635 44.55 38.9008 44.55C39.6722 44.55 40.2788 44.7753 40.7208 45.226C41.1628 45.668 41.3838 46.2573 41.3838 46.994C41.3838 47.514 41.2365 48.0427 40.9418 48.58C40.6558 49.1087 40.2572 49.6677 39.7458 50.257C39.2432 50.8377 38.6625 51.4703 38.0038 52.155C38.2292 52.1377 38.4632 52.1203 38.7058 52.103C38.9485 52.0857 39.1782 52.077 39.3948 52.077H41.7998V53H36.4438ZM42.9057 53V52.363C43.7377 51.531 44.4441 50.803 45.0247 50.179C45.6054 49.5463 46.0474 48.9787 46.3507 48.476C46.6541 47.9647 46.8057 47.488 46.8057 47.046C46.8057 46.5693 46.6757 46.1793 46.4157 45.876C46.1557 45.5727 45.7614 45.421 45.2327 45.421C44.8861 45.421 44.5654 45.5207 44.2707 45.72C43.9761 45.9107 43.7074 46.1447 43.4647 46.422L42.8537 45.811C43.2004 45.4297 43.5687 45.1263 43.9587 44.901C44.3574 44.667 44.8254 44.55 45.3627 44.55C46.1341 44.55 46.7407 44.7753 47.1827 45.226C47.6247 45.668 47.8457 46.2573 47.8457 46.994C47.8457 47.514 47.6984 48.0427 47.4037 48.58C47.1177 49.1087 46.7191 49.6677 46.2077 50.257C45.7051 50.8377 45.1244 51.4703 44.4657 52.155C44.6911 52.1377 44.9251 52.1203 45.1677 52.103C45.4104 52.0857 45.6401 52.077 45.8567 52.077H48.2617V53H42.9057ZM48.9777 55.08L52.4487 43.77H53.2287L49.7577 55.08H48.9777ZM56.6296 53.156C55.7976 53.156 55.1432 52.7833 54.6666 52.038C54.1986 51.284 53.9646 50.2137 53.9646 48.827C53.9646 47.4317 54.1986 46.37 54.6666 45.642C55.1432 44.914 55.7976 44.55 56.6296 44.55C57.4529 44.55 58.0986 44.914 58.5666 45.642C59.0432 46.37 59.2816 47.4317 59.2816 48.827C59.2816 50.2137 59.0432 51.284 58.5666 52.038C58.0986 52.7833 57.4529 53.156 56.6296 53.156ZM56.6296 52.298C57.1149 52.298 57.5049 52.025 57.7996 51.479C58.0942 50.9243 58.2416 50.0403 58.2416 48.827C58.2416 47.6137 58.0942 46.7427 57.7996 46.214C57.5049 45.6767 57.1149 45.408 56.6296 45.408C56.1442 45.408 55.7499 45.6767 55.4466 46.214C55.1519 46.7427 55.0046 47.6137 55.0046 48.827C55.0046 50.0403 55.1519 50.9243 55.4466 51.479C55.7499 52.025 56.1442 52.298 56.6296 52.298ZM60.3745 53V52.363C61.2065 51.531 61.9128 50.803 62.4935 50.179C63.0742 49.5463 63.5162 48.9787 63.8195 48.476C64.1228 47.9647 64.2745 47.488 64.2745 47.046C64.2745 46.5693 64.1445 46.1793 63.8845 45.876C63.6245 45.5727 63.2302 45.421 62.7015 45.421C62.3548 45.421 62.0342 45.5207 61.7395 45.72C61.4448 45.9107 61.1762 46.1447 60.9335 46.422L60.3225 45.811C60.6692 45.4297 61.0375 45.1263 61.4275 44.901C61.8262 44.667 62.2942 44.55 62.8315 44.55C63.6028 44.55 64.2095 44.7753 64.6515 45.226C65.0935 45.668 65.3145 46.2573 65.3145 46.994C65.3145 47.514 65.1672 48.0427 64.8725 48.58C64.5865 49.1087 64.1878 49.6677 63.6765 50.257C63.1738 50.8377 62.5932 51.4703 61.9345 52.155C62.1598 52.1377 62.3938 52.1203 62.6365 52.103C62.8792 52.0857 63.1088 52.077 63.3255 52.077H65.7305V53H60.3745ZM66.4464 55.08L69.9174 43.77H70.6974L67.2264 55.08H66.4464ZM71.3813 53V52.363C72.2133 51.531 72.9197 50.803 73.5003 50.179C74.081 49.5463 74.523 48.9787 74.8263 48.476C75.1297 47.9647 75.2813 47.488 75.2813 47.046C75.2813 46.5693 75.1513 46.1793 74.8913 45.876C74.6313 45.5727 74.237 45.421 73.7083 45.421C73.3617 45.421 73.041 45.5207 72.7463 45.72C72.4517 45.9107 72.183 46.1447 71.9403 46.422L71.3293 45.811C71.676 45.4297 72.0443 45.1263 72.4343 44.901C72.833 44.667 73.301 44.55 73.8383 44.55C74.6097 44.55 75.2163 44.7753 75.6583 45.226C76.1003 45.668 76.3213 46.2573 76.3213 46.994C76.3213 47.514 76.174 48.0427 75.8793 48.58C75.5933 49.1087 75.1947 49.6677 74.6833 50.257C74.1807 50.8377 73.6 51.4703 72.9413 52.155C73.1667 52.1377 73.4007 52.1203 73.6433 52.103C73.886 52.0857 74.1157 52.077 74.3323 52.077H76.7373V53H71.3813ZM79.6242 53C79.6762 51.96 79.7846 51.0283 79.9492 50.205C80.1226 49.373 80.3739 48.593 80.7032 47.865C81.0412 47.1283 81.4832 46.383 82.0292 45.629H77.8952V44.706H83.2382V45.369C82.7442 45.993 82.3412 46.5953 82.0292 47.176C81.7172 47.748 81.4746 48.3287 81.3012 48.918C81.1279 49.4987 80.9979 50.1227 80.9112 50.79C80.8246 51.4573 80.7639 52.194 80.7292 53H79.6242Z" fill="#0276C2"/>
</svg>
