<svg width="110" height="80" viewBox="0 0 110 80" fill="none" xmlns="http://www.w3.org/2000/svg">
<path d="M0 8C0 3.58172 3.58172 0 8 0H102C106.418 0 110 3.58172 110 8V80H0V8Z" fill="white"/>
<g clip-path="url(#clip0_2236_21550)">
<rect width="88.2292" height="32" transform="translate(21.7705 24)" fill="#ECF7FF"/>
<rect x="21.7705" y="24" width="3.7948" height="32" fill="#0276C2"/>
<path d="M36.5338 37.5702L39.7744 40.7126L43.0149 37.5702C43.3407 37.2543 43.8668 37.2543 44.1926 37.5702C44.5183 37.886 44.5183 38.3963 44.1926 38.7121L40.359 42.4297C40.0333 42.7456 39.5071 42.7456 39.1814 42.4297L35.3478 38.7121C35.0221 38.3963 35.0221 37.886 35.3478 37.5702C35.6735 37.2624 36.2081 37.2543 36.5338 37.5702V37.5702Z" fill="#0276C2"/>
<path d="M58.5155 44.6824C57.7442 44.6824 57.0422 44.5177 56.4095 44.1884C55.7855 43.859 55.2872 43.3737 54.9145 42.7324C54.5505 42.0824 54.3685 41.285 54.3685 40.3404C54.3685 39.4044 54.5548 38.607 54.9275 37.9484C55.3088 37.281 55.8115 36.774 56.4355 36.4274C57.0595 36.072 57.7485 35.8944 58.5025 35.8944C59.1178 35.8944 59.6465 36.007 60.0885 36.2324C60.5305 36.4577 60.8902 36.7134 61.1675 36.9994L60.1665 38.2214C59.9498 38.0307 59.7202 37.8704 59.4775 37.7404C59.2348 37.6104 58.9315 37.5454 58.5675 37.5454C57.9088 37.5454 57.3715 37.788 56.9555 38.2734C56.5395 38.7587 56.3315 39.426 56.3315 40.2754C56.3315 41.142 56.5308 41.818 56.9295 42.3034C57.3282 42.7887 57.9218 43.0314 58.7105 43.0314C58.8838 43.0314 59.0528 43.0097 59.2175 42.9664C59.3822 42.923 59.5165 42.858 59.6205 42.7714V41.3154H58.2165V39.7554H61.3105V43.6554C61.0158 43.9414 60.6215 44.184 60.1275 44.3834C59.6422 44.5827 59.1048 44.6824 58.5155 44.6824ZM62.9055 44.5264V38.0784H64.4655L64.5955 39.2094H64.6475C64.8815 38.776 65.1632 38.4554 65.4925 38.2474C65.8219 38.0307 66.1512 37.9224 66.4805 37.9224C66.6625 37.9224 66.8142 37.9354 66.9355 37.9614C67.0569 37.9787 67.1609 38.009 67.2475 38.0524L66.9355 39.7034C66.8229 39.6687 66.7102 39.6427 66.5975 39.6254C66.4935 39.608 66.3722 39.5994 66.2335 39.5994C65.9909 39.5994 65.7352 39.6904 65.4665 39.8724C65.2065 40.0457 64.9899 40.349 64.8165 40.7824V44.5264H62.9055ZM70.7273 44.6824C70.1813 44.6824 69.6656 44.5524 69.1803 44.2924C68.7036 44.0237 68.3179 43.638 68.0233 43.1354C67.7286 42.624 67.5813 42.013 67.5813 41.3024C67.5813 40.583 67.7286 39.972 68.0233 39.4694C68.3179 38.9667 68.7036 38.5854 69.1803 38.3254C69.6656 38.0567 70.1813 37.9224 70.7273 37.9224C71.2733 37.9224 71.7846 38.0567 72.2613 38.3254C72.7379 38.5854 73.1236 38.9667 73.4183 39.4694C73.7129 39.972 73.8603 40.583 73.8603 41.3024C73.8603 42.013 73.7129 42.624 73.4183 43.1354C73.1236 43.638 72.7379 44.0237 72.2613 44.2924C71.7846 44.5524 71.2733 44.6824 70.7273 44.6824ZM70.7273 43.1354C71.1173 43.1354 71.4119 42.9707 71.6113 42.6414C71.8106 42.3034 71.9103 41.857 71.9103 41.3024C71.9103 40.739 71.8106 40.2927 71.6113 39.9634C71.4119 39.634 71.1173 39.4694 70.7273 39.4694C70.3286 39.4694 70.0296 39.634 69.8303 39.9634C69.6396 40.2927 69.5443 40.739 69.5443 41.3024C69.5443 41.857 69.6396 42.3034 69.8303 42.6414C70.0296 42.9707 70.3286 43.1354 70.7273 43.1354ZM77.1062 44.6824C76.4042 44.6824 75.8929 44.4527 75.5722 43.9934C75.2602 43.5254 75.1042 42.8884 75.1042 42.0824V38.0784H77.0152V41.8354C77.0152 42.2947 77.0802 42.6154 77.2102 42.7974C77.3402 42.9707 77.5439 43.0574 77.8212 43.0574C78.0639 43.0574 78.2676 43.001 78.4322 42.8884C78.5969 42.7757 78.7746 42.5937 78.9652 42.3424V38.0784H80.8762V44.5264H79.3162L79.1732 43.6294H79.1342C78.8656 43.95 78.5709 44.2057 78.2502 44.3964C77.9296 44.587 77.5482 44.6824 77.1062 44.6824ZM82.5579 46.9184V38.0784H84.1179L84.2479 38.7154H84.2999C84.5512 38.49 84.8329 38.3037 85.1449 38.1564C85.4656 38.0004 85.7949 37.9224 86.1329 37.9224C86.9129 37.9224 87.5282 38.2214 87.9789 38.8194C88.4296 39.4087 88.6549 40.2017 88.6549 41.1984C88.6549 41.935 88.5249 42.5634 88.2649 43.0834C88.0049 43.6034 87.6669 44.002 87.2509 44.2794C86.8436 44.548 86.4059 44.6824 85.9379 44.6824C85.6606 44.6824 85.3919 44.626 85.1319 44.5134C84.8719 44.392 84.6292 44.223 84.4039 44.0064L84.4689 45.0334V46.9184H82.5579ZM85.4959 43.1224C85.8252 43.1224 86.1069 42.9707 86.3409 42.6674C86.5749 42.364 86.6919 41.883 86.6919 41.2244C86.6919 40.063 86.3192 39.4824 85.5739 39.4824C85.2012 39.4824 84.8329 39.6774 84.4689 40.0674V42.7064C84.6422 42.8624 84.8156 42.9707 84.9889 43.0314C85.1622 43.092 85.3312 43.1224 85.4959 43.1224Z" fill="#0276C2"/>
</g>
<defs>
<clipPath id="clip0_2236_21550">
<rect width="88.2292" height="32" fill="white" transform="translate(21.7705 24)"/>
</clipPath>
</defs>
</svg>
