<svg width="110" height="80" viewBox="0 0 110 80" fill="none" xmlns="http://www.w3.org/2000/svg">
<path d="M0 8C0 3.58172 3.58172 0 8 0H102C106.418 0 110 3.58172 110 8V80H0V8Z" fill="white"/>
<rect x="16.5" y="30.5" width="77" height="27" rx="3.5" fill="#ECF7FF" stroke="#0276C2"/>
<path d="M16.81 26V20.096H17.557V25.361H20.14V26H16.81ZM22.123 26.108C21.757 26.108 21.451 26 21.205 25.784C20.965 25.562 20.845 25.256 20.845 24.866C20.845 24.386 21.058 24.02 21.484 23.768C21.916 23.51 22.597 23.33 23.527 23.228C23.527 23.042 23.5 22.865 23.446 22.697C23.398 22.529 23.308 22.394 23.176 22.292C23.05 22.184 22.867 22.13 22.627 22.13C22.375 22.13 22.138 22.178 21.916 22.274C21.694 22.37 21.496 22.478 21.322 22.598L21.034 22.085C21.238 21.953 21.487 21.827 21.781 21.707C22.081 21.581 22.405 21.518 22.753 21.518C23.287 21.518 23.674 21.683 23.914 22.013C24.154 22.337 24.274 22.772 24.274 23.318V26H23.662L23.599 25.478H23.572C23.368 25.646 23.143 25.793 22.897 25.919C22.657 26.045 22.399 26.108 22.123 26.108ZM22.339 25.514C22.549 25.514 22.747 25.463 22.933 25.361C23.119 25.259 23.317 25.115 23.527 24.929V23.714C22.801 23.804 22.291 23.939 21.997 24.119C21.709 24.299 21.565 24.53 21.565 24.812C21.565 25.058 21.64 25.238 21.79 25.352C21.94 25.46 22.123 25.514 22.339 25.514ZM27.5851 26.108C27.3811 26.108 27.1681 26.06 26.9461 25.964C26.7301 25.862 26.5261 25.724 26.3341 25.55H26.3071L26.2441 26H25.6501V19.592H26.3881V21.338L26.3701 22.13C26.5681 21.956 26.7841 21.812 27.0181 21.698C27.2581 21.578 27.4981 21.518 27.7381 21.518C28.3081 21.518 28.7401 21.719 29.0341 22.121C29.3281 22.523 29.4751 23.063 29.4751 23.741C29.4751 24.239 29.3851 24.665 29.2051 25.019C29.0311 25.373 28.8001 25.643 28.5121 25.829C28.2301 26.015 27.9211 26.108 27.5851 26.108ZM27.4591 25.487C27.8191 25.487 28.1161 25.334 28.3501 25.028C28.5901 24.716 28.7101 24.29 28.7101 23.75C28.7101 23.27 28.6201 22.883 28.4401 22.589C28.2661 22.289 27.9721 22.139 27.5581 22.139C27.3721 22.139 27.1831 22.19 26.9911 22.292C26.7991 22.394 26.5981 22.541 26.3881 22.733V25.028C26.5801 25.196 26.7691 25.316 26.9551 25.388C27.1471 25.454 27.3151 25.487 27.4591 25.487ZM32.3977 26.108C32.0077 26.108 31.6537 26.018 31.3357 25.838C31.0177 25.652 30.7657 25.388 30.5797 25.046C30.3937 24.704 30.3007 24.296 30.3007 23.822C30.3007 23.342 30.3937 22.931 30.5797 22.589C30.7717 22.247 31.0177 21.983 31.3177 21.797C31.6177 21.611 31.9327 21.518 32.2627 21.518C32.8207 21.518 33.2497 21.704 33.5497 22.076C33.8557 22.448 34.0087 22.946 34.0087 23.57C34.0087 23.648 34.0057 23.726 33.9997 23.804C33.9997 23.876 33.9937 23.939 33.9817 23.993H31.0297C31.0597 24.455 31.2037 24.824 31.4617 25.1C31.7257 25.376 32.0677 25.514 32.4877 25.514C32.6977 25.514 32.8897 25.484 33.0637 25.424C33.2437 25.358 33.4147 25.274 33.5767 25.172L33.8377 25.658C33.6517 25.778 33.4387 25.883 33.1987 25.973C32.9647 26.063 32.6977 26.108 32.3977 26.108ZM31.0207 23.462H33.3607C33.3607 23.018 33.2647 22.682 33.0727 22.454C32.8867 22.22 32.6227 22.103 32.2807 22.103C31.9747 22.103 31.6987 22.223 31.4527 22.463C31.2127 22.697 31.0687 23.03 31.0207 23.462ZM35.8726 26.108C35.5966 26.108 35.3956 26.024 35.2696 25.856C35.1496 25.682 35.0896 25.436 35.0896 25.118V19.592H35.8276V25.172C35.8276 25.286 35.8486 25.37 35.8906 25.424C35.9326 25.472 35.9806 25.496 36.0346 25.496C36.0586 25.496 36.0796 25.496 36.0976 25.496C36.1216 25.49 36.1546 25.484 36.1966 25.478L36.2956 26.036C36.2476 26.06 36.1906 26.078 36.1246 26.09C36.0586 26.102 35.9746 26.108 35.8726 26.108Z" fill="#0276C2"/>
<path d="M27.622 47.02L26.862 46.469L27.945 44.683L26.102 43.923L26.387 43.049L28.325 43.524L28.496 41.472H29.427L29.598 43.505L31.555 43.049L31.84 43.923L29.997 44.683L31.061 46.469L30.32 47.02L28.971 45.386L27.622 47.02ZM35.5634 47.02L34.8034 46.469L35.8864 44.683L34.0434 43.923L34.3284 43.049L36.2664 43.524L36.4374 41.472H37.3684L37.5394 43.505L39.4964 43.049L39.7814 43.923L37.9384 44.683L39.0024 46.469L38.2614 47.02L36.9124 45.386L35.5634 47.02ZM43.5048 47.02L42.7448 46.469L43.8278 44.683L41.9848 43.923L42.2698 43.049L44.2078 43.524L44.3788 41.472H45.3098L45.4808 43.505L47.4378 43.049L47.7228 43.923L45.8798 44.683L46.9438 46.469L46.2028 47.02L44.8538 45.386L43.5048 47.02ZM51.4462 47.02L50.6862 46.469L51.7692 44.683L49.9262 43.923L50.2112 43.049L52.1492 43.524L52.3202 41.472H53.2512L53.4222 43.505L55.3792 43.049L55.6642 43.923L53.8212 44.683L54.8852 46.469L54.1442 47.02L52.7952 45.386L51.4462 47.02Z" fill="#0276C2"/>
</svg>
