<svg width="110" height="80" viewBox="0 0 110 80" fill="none" xmlns="http://www.w3.org/2000/svg">
<path d="M0 8C0 3.58172 3.58172 0 8 0H102C106.418 0 110 3.58172 110 8V80H0V8Z" fill="white"/>
<path d="M70.8337 52.3149V27.6853C70.8337 25.7501 69.2503 24.1667 67.3151 24.1667H42.6855C40.7503 24.1667 39.167 25.7501 39.167 27.6853V52.3149C39.167 54.2501 40.7503 55.8334 42.6855 55.8334H67.3151C69.2503 55.8334 70.8337 54.2501 70.8337 52.3149ZM49.5466 43.4834L53.2411 47.9343L58.6948 40.9149C59.0466 40.4575 59.7503 40.4575 60.1022 40.9325L66.2772 49.1658C66.717 49.7464 66.2948 50.5732 65.5735 50.5732H44.48C43.7411 50.5732 43.3364 49.7288 43.7938 49.1482L48.1744 43.5186C48.5087 43.0612 49.1772 43.0436 49.5466 43.4834V43.4834Z" fill="#0276C2"/>
</svg>
