<svg width="110" height="80" viewBox="0 0 110 80" fill="none" xmlns="http://www.w3.org/2000/svg">
<path d="M0 8C0 3.58172 3.58172 0 8 0H102C106.418 0 110 3.58172 110 8V80H0V8Z" fill="white"/>
<path d="M42.0494 45V34.504H43.3774V43.864H47.9694V45H42.0494ZM49.7026 45V37.224H51.0146V45H49.7026ZM50.3746 35.624C50.1186 35.624 49.9053 35.5493 49.7346 35.4C49.5746 35.24 49.4946 35.0267 49.4946 34.76C49.4946 34.504 49.5746 34.296 49.7346 34.136C49.9053 33.976 50.1186 33.896 50.3746 33.896C50.6306 33.896 50.8386 33.976 50.9986 34.136C51.1693 34.296 51.2546 34.504 51.2546 34.76C51.2546 35.0267 51.1693 35.24 50.9986 35.4C50.8386 35.5493 50.6306 35.624 50.3746 35.624ZM53.6401 45V37.224H54.7281L54.8401 38.344H54.8881C55.2615 37.9707 55.6561 37.6613 56.0721 37.416C56.4881 37.16 56.9628 37.032 57.4961 37.032C58.3175 37.032 58.9148 37.2933 59.2881 37.816C59.6721 38.328 59.8641 39.08 59.8641 40.072V45H58.5521V40.248C58.5521 39.5227 58.4348 38.9947 58.2001 38.664C57.9655 38.3333 57.5921 38.168 57.0801 38.168C56.6855 38.168 56.3281 38.2693 56.0081 38.472C55.6988 38.6747 55.3468 38.9733 54.9521 39.368V45H53.6401ZM62.3901 45V33.608H63.6861V41.32H63.7341L67.0461 37.224H68.5021L65.8941 40.344L68.8541 45H67.4141L65.1421 41.256L63.6861 42.952V45H62.3901Z" fill="#0276C2"/>
<path d="M40.6094 46.2H68.9981V47H40.6094V46.2Z" fill="#0276C2"/>
</svg>
