<svg width="110" height="80" viewBox="0 0 110 80" fill="none" xmlns="http://www.w3.org/2000/svg">
<path d="M0 8C0 3.58172 3.58172 0 8 0H102C106.418 0 110 3.58172 110 8V80H0V8Z" fill="white"/>
<rect x="16.5" y="35.5" width="77" height="27" rx="3.5" fill="#ECF7FF" stroke="#0276C2"/>
<path d="M16.81 31V25.096H17.557V30.361H20.14V31H16.81ZM22.123 31.108C21.757 31.108 21.451 31 21.205 30.784C20.965 30.562 20.845 30.256 20.845 29.866C20.845 29.386 21.058 29.02 21.484 28.768C21.916 28.51 22.597 28.33 23.527 28.228C23.527 28.042 23.5 27.865 23.446 27.697C23.398 27.529 23.308 27.394 23.176 27.292C23.05 27.184 22.867 27.13 22.627 27.13C22.375 27.13 22.138 27.178 21.916 27.274C21.694 27.37 21.496 27.478 21.322 27.598L21.034 27.085C21.238 26.953 21.487 26.827 21.781 26.707C22.081 26.581 22.405 26.518 22.753 26.518C23.287 26.518 23.674 26.683 23.914 27.013C24.154 27.337 24.274 27.772 24.274 28.318V31H23.662L23.599 30.478H23.572C23.368 30.646 23.143 30.793 22.897 30.919C22.657 31.045 22.399 31.108 22.123 31.108ZM22.339 30.514C22.549 30.514 22.747 30.463 22.933 30.361C23.119 30.259 23.317 30.115 23.527 29.929V28.714C22.801 28.804 22.291 28.939 21.997 29.119C21.709 29.299 21.565 29.53 21.565 29.812C21.565 30.058 21.64 30.238 21.79 30.352C21.94 30.46 22.123 30.514 22.339 30.514ZM27.5851 31.108C27.3811 31.108 27.1681 31.06 26.9461 30.964C26.7301 30.862 26.5261 30.724 26.3341 30.55H26.3071L26.2441 31H25.6501V24.592H26.3881V26.338L26.3701 27.13C26.5681 26.956 26.7841 26.812 27.0181 26.698C27.2581 26.578 27.4981 26.518 27.7381 26.518C28.3081 26.518 28.7401 26.719 29.0341 27.121C29.3281 27.523 29.4751 28.063 29.4751 28.741C29.4751 29.239 29.3851 29.665 29.2051 30.019C29.0311 30.373 28.8001 30.643 28.5121 30.829C28.2301 31.015 27.9211 31.108 27.5851 31.108ZM27.4591 30.487C27.8191 30.487 28.1161 30.334 28.3501 30.028C28.5901 29.716 28.7101 29.29 28.7101 28.75C28.7101 28.27 28.6201 27.883 28.4401 27.589C28.2661 27.289 27.9721 27.139 27.5581 27.139C27.3721 27.139 27.1831 27.19 26.9911 27.292C26.7991 27.394 26.5981 27.541 26.3881 27.733V30.028C26.5801 30.196 26.7691 30.316 26.9551 30.388C27.1471 30.454 27.3151 30.487 27.4591 30.487ZM32.3977 31.108C32.0077 31.108 31.6537 31.018 31.3357 30.838C31.0177 30.652 30.7657 30.388 30.5797 30.046C30.3937 29.704 30.3007 29.296 30.3007 28.822C30.3007 28.342 30.3937 27.931 30.5797 27.589C30.7717 27.247 31.0177 26.983 31.3177 26.797C31.6177 26.611 31.9327 26.518 32.2627 26.518C32.8207 26.518 33.2497 26.704 33.5497 27.076C33.8557 27.448 34.0087 27.946 34.0087 28.57C34.0087 28.648 34.0057 28.726 33.9997 28.804C33.9997 28.876 33.9937 28.939 33.9817 28.993H31.0297C31.0597 29.455 31.2037 29.824 31.4617 30.1C31.7257 30.376 32.0677 30.514 32.4877 30.514C32.6977 30.514 32.8897 30.484 33.0637 30.424C33.2437 30.358 33.4147 30.274 33.5767 30.172L33.8377 30.658C33.6517 30.778 33.4387 30.883 33.1987 30.973C32.9647 31.063 32.6977 31.108 32.3977 31.108ZM31.0207 28.462H33.3607C33.3607 28.018 33.2647 27.682 33.0727 27.454C32.8867 27.22 32.6227 27.103 32.2807 27.103C31.9747 27.103 31.6987 27.223 31.4527 27.463C31.2127 27.697 31.0687 28.03 31.0207 28.462ZM35.8726 31.108C35.5966 31.108 35.3956 31.024 35.2696 30.856C35.1496 30.682 35.0896 30.436 35.0896 30.118V24.592H35.8276V30.172C35.8276 30.286 35.8486 30.37 35.8906 30.424C35.9326 30.472 35.9806 30.496 36.0346 30.496C36.0586 30.496 36.0796 30.496 36.0976 30.496C36.1216 30.49 36.1546 30.484 36.1966 30.478L36.2956 31.036C36.2476 31.06 36.1906 31.078 36.1246 31.09C36.0586 31.102 35.9746 31.108 35.8726 31.108Z" fill="#0276C2"/>
<path d="M24.17 53L24.495 50.348H23.455V49.607H24.586L24.82 47.683H23.715V46.929H24.911L25.21 44.55H25.899L25.6 46.929H27.329L27.641 44.55H28.33L28.018 46.929H29.071V47.683H27.94L27.706 49.607H28.811V50.348H27.615L27.29 53H26.601L26.913 50.348H25.197L24.872 53H24.17ZM25.288 49.607H27.004L27.238 47.683H25.522L25.288 49.607ZM30.4889 53V52.116H32.3869V46.006H30.8789V45.317C31.2602 45.2477 31.5896 45.1653 31.8669 45.07C32.1529 44.966 32.4086 44.8447 32.6339 44.706H33.4529V52.116H35.1689V53H30.4889ZM36.4438 53V52.363C37.2758 51.531 37.9822 50.803 38.5628 50.179C39.1435 49.5463 39.5855 48.9787 39.8888 48.476C40.1922 47.9647 40.3438 47.488 40.3438 47.046C40.3438 46.5693 40.2138 46.1793 39.9538 45.876C39.6938 45.5727 39.2995 45.421 38.7708 45.421C38.4242 45.421 38.1035 45.5207 37.8088 45.72C37.5142 45.9107 37.2455 46.1447 37.0028 46.422L36.3918 45.811C36.7385 45.4297 37.1068 45.1263 37.4968 44.901C37.8955 44.667 38.3635 44.55 38.9008 44.55C39.6722 44.55 40.2788 44.7753 40.7208 45.226C41.1628 45.668 41.3838 46.2573 41.3838 46.994C41.3838 47.514 41.2365 48.0427 40.9418 48.58C40.6558 49.1087 40.2572 49.6677 39.7458 50.257C39.2432 50.8377 38.6625 51.4703 38.0038 52.155C38.2292 52.1377 38.4632 52.1203 38.7058 52.103C38.9485 52.0857 39.1782 52.077 39.3948 52.077H41.7998V53H36.4438ZM45.4537 53.156C44.7951 53.156 44.2447 53.039 43.8027 52.805C43.3607 52.5623 43.0011 52.2893 42.7237 51.986L43.2697 51.284C43.5211 51.544 43.8157 51.7737 44.1537 51.973C44.4917 52.1723 44.9034 52.272 45.3887 52.272C45.8914 52.272 46.3031 52.1333 46.6237 51.856C46.9444 51.5787 47.1047 51.2103 47.1047 50.751C47.1047 50.4217 47.0181 50.1357 46.8447 49.893C46.6801 49.6417 46.4027 49.4467 46.0127 49.308C45.6314 49.1693 45.1114 49.1 44.4527 49.1V48.281C45.0421 48.281 45.5057 48.2117 45.8437 48.073C46.1904 47.9343 46.4374 47.748 46.5847 47.514C46.7321 47.28 46.8057 47.02 46.8057 46.734C46.8057 46.3267 46.6757 46.006 46.4157 45.772C46.1644 45.538 45.8177 45.421 45.3757 45.421C45.0291 45.421 44.7084 45.499 44.4137 45.655C44.1277 45.811 43.8591 46.0147 43.6077 46.266L43.0357 45.59C43.3564 45.2867 43.7117 45.0397 44.1017 44.849C44.4917 44.6497 44.9294 44.55 45.4147 44.55C46.1341 44.55 46.7277 44.7363 47.1957 45.109C47.6637 45.473 47.8977 45.9887 47.8977 46.656C47.8977 47.1587 47.7591 47.5703 47.4817 47.891C47.2044 48.2117 46.8404 48.4587 46.3897 48.632V48.684C46.8924 48.7967 47.3171 49.035 47.6637 49.399C48.0104 49.7543 48.1837 50.218 48.1837 50.79C48.1837 51.2753 48.0624 51.6957 47.8197 52.051C47.5771 52.4063 47.2477 52.6793 46.8317 52.87C46.4244 53.0607 45.9651 53.156 45.4537 53.156ZM50.1997 49.854H52.7997V47.449C52.7997 47.2237 52.8083 46.955 52.8257 46.643C52.843 46.331 52.856 46.0667 52.8647 45.85H52.8127C52.7087 46.0493 52.6003 46.2443 52.4877 46.435C52.375 46.6257 52.258 46.8207 52.1367 47.02L50.1997 49.854ZM52.7997 53V50.712H49.0687V50.01L52.6177 44.706H53.8137V49.854H54.9447V50.712H53.8137V53H52.7997Z" fill="#0276C2"/>
</svg>
