<svg width="110" height="80" viewBox="0 0 110 80" fill="none" xmlns="http://www.w3.org/2000/svg">
<g clip-path="url(#clip0_3431_57800)">
<path d="M0 8C0 3.58172 3.58172 0 8 0H102C106.418 0 110 3.58172 110 8V80H0V8Z" fill="white"/>
<path d="M49.0332 42.1066V25.512C49.0332 23.579 50.6002 22.012 52.5332 22.012H77.0901C79.0231 22.012 80.5901 23.579 80.5901 25.512V43.8266C80.5901 45.8559 78.8699 47.4599 76.8455 47.3181L52.2886 45.598C50.455 45.4696 49.0332 43.9447 49.0332 42.1066Z" fill="#B9D8EC" stroke="#0276C2"/>
<path d="M81.5918 42.1066V25.512C81.5918 23.579 83.1588 22.012 85.0918 22.012H109.649C111.582 22.012 113.149 23.579 113.149 25.512V43.8266C113.149 45.8559 111.428 47.4599 109.404 47.3181L84.8472 45.598C83.0136 45.4696 81.5918 43.9447 81.5918 42.1066Z" fill="#B9D8EC" stroke="#0276C2"/>
<path d="M17.4355 83V25C17.4355 23.067 19.0026 21.5 20.9355 21.5H44.5349C46.4679 21.5 48.0349 23.067 48.0349 25V32.1669C48.0349 34.6522 50.0496 36.6669 52.5349 36.6669H113C114.933 36.6669 116.5 38.2339 116.5 40.1669V83C116.5 84.933 114.933 86.5 113 86.5H20.9355C19.0026 86.5 17.4355 84.933 17.4355 83Z" fill="#ECF7FF" stroke="#0276C2"/>
<rect x="22.2578" y="27.3872" width="19.1613" height="5.32258" fill="#0276C2"/>
<rect x="26.5156" y="45.4839" width="75.5806" height="5.32258" fill="#B9D8EC"/>
<rect x="26.5156" y="56.1289" width="75.5806" height="5.32258" fill="#B9D8EC"/>
<rect x="55.2578" y="27.3872" width="19.1613" height="5.32258" fill="#0276C2"/>
<rect x="88.2578" y="27.3872" width="19.1613" height="5.32258" fill="#0276C2"/>
</g>
<defs>
<clipPath id="clip0_3431_57800">
<path d="M0 8C0 3.58172 3.58172 0 8 0H102C106.418 0 110 3.58172 110 8V80H0V8Z" fill="white"/>
</clipPath>
</defs>
</svg>
