<svg width="110" height="80" viewBox="0 0 110 80" fill="none" xmlns="http://www.w3.org/2000/svg">
<path d="M0 8C0 3.58172 3.58172 0 8 0H102C106.418 0 110 3.58172 110 8V80H0V8Z" fill="white"/>
<rect x="16.5" y="35.5" width="77" height="27" rx="3.5" fill="#ECF7FF" stroke="#0276C2"/>
<path d="M16.81 31V25.096H17.557V30.361H20.14V31H16.81ZM22.123 31.108C21.757 31.108 21.451 31 21.205 30.784C20.965 30.562 20.845 30.256 20.845 29.866C20.845 29.386 21.058 29.02 21.484 28.768C21.916 28.51 22.597 28.33 23.527 28.228C23.527 28.042 23.5 27.865 23.446 27.697C23.398 27.529 23.308 27.394 23.176 27.292C23.05 27.184 22.867 27.13 22.627 27.13C22.375 27.13 22.138 27.178 21.916 27.274C21.694 27.37 21.496 27.478 21.322 27.598L21.034 27.085C21.238 26.953 21.487 26.827 21.781 26.707C22.081 26.581 22.405 26.518 22.753 26.518C23.287 26.518 23.674 26.683 23.914 27.013C24.154 27.337 24.274 27.772 24.274 28.318V31H23.662L23.599 30.478H23.572C23.368 30.646 23.143 30.793 22.897 30.919C22.657 31.045 22.399 31.108 22.123 31.108ZM22.339 30.514C22.549 30.514 22.747 30.463 22.933 30.361C23.119 30.259 23.317 30.115 23.527 29.929V28.714C22.801 28.804 22.291 28.939 21.997 29.119C21.709 29.299 21.565 29.53 21.565 29.812C21.565 30.058 21.64 30.238 21.79 30.352C21.94 30.46 22.123 30.514 22.339 30.514ZM27.5851 31.108C27.3811 31.108 27.1681 31.06 26.9461 30.964C26.7301 30.862 26.5261 30.724 26.3341 30.55H26.3071L26.2441 31H25.6501V24.592H26.3881V26.338L26.3701 27.13C26.5681 26.956 26.7841 26.812 27.0181 26.698C27.2581 26.578 27.4981 26.518 27.7381 26.518C28.3081 26.518 28.7401 26.719 29.0341 27.121C29.3281 27.523 29.4751 28.063 29.4751 28.741C29.4751 29.239 29.3851 29.665 29.2051 30.019C29.0311 30.373 28.8001 30.643 28.5121 30.829C28.2301 31.015 27.9211 31.108 27.5851 31.108ZM27.4591 30.487C27.8191 30.487 28.1161 30.334 28.3501 30.028C28.5901 29.716 28.7101 29.29 28.7101 28.75C28.7101 28.27 28.6201 27.883 28.4401 27.589C28.2661 27.289 27.9721 27.139 27.5581 27.139C27.3721 27.139 27.1831 27.19 26.9911 27.292C26.7991 27.394 26.5981 27.541 26.3881 27.733V30.028C26.5801 30.196 26.7691 30.316 26.9551 30.388C27.1471 30.454 27.3151 30.487 27.4591 30.487ZM32.3977 31.108C32.0077 31.108 31.6537 31.018 31.3357 30.838C31.0177 30.652 30.7657 30.388 30.5797 30.046C30.3937 29.704 30.3007 29.296 30.3007 28.822C30.3007 28.342 30.3937 27.931 30.5797 27.589C30.7717 27.247 31.0177 26.983 31.3177 26.797C31.6177 26.611 31.9327 26.518 32.2627 26.518C32.8207 26.518 33.2497 26.704 33.5497 27.076C33.8557 27.448 34.0087 27.946 34.0087 28.57C34.0087 28.648 34.0057 28.726 33.9997 28.804C33.9997 28.876 33.9937 28.939 33.9817 28.993H31.0297C31.0597 29.455 31.2037 29.824 31.4617 30.1C31.7257 30.376 32.0677 30.514 32.4877 30.514C32.6977 30.514 32.8897 30.484 33.0637 30.424C33.2437 30.358 33.4147 30.274 33.5767 30.172L33.8377 30.658C33.6517 30.778 33.4387 30.883 33.1987 30.973C32.9647 31.063 32.6977 31.108 32.3977 31.108ZM31.0207 28.462H33.3607C33.3607 28.018 33.2647 27.682 33.0727 27.454C32.8867 27.22 32.6227 27.103 32.2807 27.103C31.9747 27.103 31.6987 27.223 31.4527 27.463C31.2127 27.697 31.0687 28.03 31.0207 28.462ZM35.8726 31.108C35.5966 31.108 35.3956 31.024 35.2696 30.856C35.1496 30.682 35.0896 30.436 35.0896 30.118V24.592H35.8276V30.172C35.8276 30.286 35.8486 30.37 35.8906 30.424C35.9326 30.472 35.9806 30.496 36.0346 30.496C36.0586 30.496 36.0796 30.496 36.0976 30.496C36.1216 30.49 36.1546 30.484 36.1966 30.478L36.2956 31.036C36.2476 31.06 36.1906 31.078 36.1246 31.09C36.0586 31.102 35.9746 31.108 35.8726 31.108Z" fill="#0276C2"/>
<path d="M25.639 48.229L25.236 49.529H27.797L27.394 48.229C27.238 47.7523 27.0907 47.28 26.952 46.812C26.8133 46.3353 26.6747 45.85 26.536 45.356H26.484C26.354 45.85 26.2197 46.3353 26.081 46.812C25.9423 47.28 25.795 47.7523 25.639 48.229ZM23.039 53L25.925 44.472H27.147L30.033 53H28.876L28.07 50.4H24.963L24.144 53H23.039ZM33.9323 53.156C33.6376 53.156 33.33 53.0867 33.0093 52.948C32.6973 52.8007 32.4026 52.6013 32.1253 52.35H32.0863L31.9953 53H31.1373V43.744H32.2033V46.266L32.1773 47.41C32.4633 47.1587 32.7753 46.9507 33.1133 46.786C33.46 46.6127 33.8066 46.526 34.1533 46.526C34.9766 46.526 35.6006 46.8163 36.0253 47.397C36.45 47.9777 36.6623 48.7577 36.6623 49.737C36.6623 50.4563 36.5323 51.0717 36.2723 51.583C36.021 52.0943 35.6873 52.4843 35.2713 52.753C34.864 53.0217 34.4176 53.156 33.9323 53.156ZM33.7503 52.259C34.2703 52.259 34.6993 52.038 35.0373 51.596C35.384 51.1453 35.5573 50.53 35.5573 49.75C35.5573 49.0567 35.4273 48.4977 35.1673 48.073C34.916 47.6397 34.4913 47.423 33.8933 47.423C33.6246 47.423 33.3516 47.4967 33.0743 47.644C32.797 47.7913 32.5066 48.0037 32.2033 48.281V51.596C32.4806 51.8387 32.7536 52.012 33.0223 52.116C33.2996 52.2113 33.5423 52.259 33.7503 52.259ZM40.8188 53.156C40.2642 53.156 39.7615 53.026 39.3108 52.766C38.8602 52.506 38.5048 52.129 38.2448 51.635C37.9848 51.141 37.8548 50.5473 37.8548 49.854C37.8548 49.1433 37.9935 48.541 38.2708 48.047C38.5568 47.553 38.9295 47.176 39.3888 46.916C39.8568 46.656 40.3595 46.526 40.8968 46.526C41.3128 46.526 41.6682 46.5997 41.9628 46.747C42.2662 46.8943 42.5262 47.0677 42.7428 47.267L42.1968 47.969C42.0148 47.8043 41.8198 47.67 41.6118 47.566C41.4125 47.462 41.1872 47.41 40.9358 47.41C40.5545 47.41 40.2122 47.514 39.9088 47.722C39.6142 47.9213 39.3802 48.2073 39.2068 48.58C39.0422 48.944 38.9598 49.3687 38.9598 49.854C38.9598 50.5733 39.1375 51.1583 39.4928 51.609C39.8568 52.051 40.3292 52.272 40.9098 52.272C41.2045 52.272 41.4775 52.2113 41.7288 52.09C41.9802 51.96 42.2012 51.8083 42.3918 51.635L42.8598 52.35C42.5738 52.6013 42.2575 52.8007 41.9108 52.948C41.5642 53.0867 41.2002 53.156 40.8188 53.156ZM46.1303 53.156C45.3416 53.156 44.7089 52.87 44.2323 52.298C43.7556 51.7173 43.5173 50.9027 43.5173 49.854C43.5173 49.1693 43.6429 48.58 43.8943 48.086C44.1543 47.5833 44.4923 47.1977 44.9083 46.929C45.3329 46.6603 45.7836 46.526 46.2603 46.526C46.6243 46.526 46.9406 46.591 47.2093 46.721C47.4779 46.851 47.7509 47.0287 48.0283 47.254L47.9763 46.175V43.744H49.0553V53H48.1713L48.0803 52.259H48.0413C47.7986 52.5017 47.5126 52.714 47.1833 52.896C46.8539 53.0693 46.5029 53.156 46.1303 53.156ZM46.3643 52.259C46.9189 52.259 47.4563 51.9687 47.9763 51.388V48.086C47.7076 47.8433 47.4476 47.6743 47.1963 47.579C46.9536 47.475 46.7023 47.423 46.4423 47.423C46.1043 47.423 45.7966 47.527 45.5193 47.735C45.2506 47.9343 45.0339 48.216 44.8693 48.58C44.7046 48.9353 44.6222 49.3557 44.6222 49.841C44.6222 50.595 44.7739 51.1887 45.0773 51.622C45.3806 52.0467 45.8096 52.259 46.3643 52.259ZM53.7442 53.156C53.1809 53.156 52.6695 53.026 52.2102 52.766C51.7509 52.4973 51.3869 52.116 51.1182 51.622C50.8495 51.128 50.7152 50.5387 50.7152 49.854C50.7152 49.1607 50.8495 48.567 51.1182 48.073C51.3955 47.579 51.7509 47.1977 52.1842 46.929C52.6175 46.6603 53.0725 46.526 53.5492 46.526C54.3552 46.526 54.9749 46.7947 55.4082 47.332C55.8502 47.8693 56.0712 48.5887 56.0712 49.49C56.0712 49.6027 56.0669 49.7153 56.0582 49.828C56.0582 49.932 56.0495 50.023 56.0322 50.101H51.7682C51.8115 50.7683 52.0195 51.3013 52.3922 51.7C52.7735 52.0987 53.2675 52.298 53.8742 52.298C54.1775 52.298 54.4549 52.2547 54.7062 52.168C54.9662 52.0727 55.2132 51.9513 55.4472 51.804L55.8242 52.506C55.5555 52.6793 55.2479 52.831 54.9012 52.961C54.5632 53.091 54.1775 53.156 53.7442 53.156ZM51.7552 49.334H55.1352C55.1352 48.6927 54.9965 48.2073 54.7192 47.878C54.4505 47.54 54.0692 47.371 53.5752 47.371C53.1332 47.371 52.7345 47.5443 52.3792 47.891C52.0325 48.229 51.8245 48.71 51.7552 49.334Z" fill="#0276C2"/>
</svg>
