<svg xmlns="http://www.w3.org/2000/svg" width="24" height="24" viewBox="0 0 24 24"><path d="M11.996 8.726a1.64 1.64 0 1 0 0-3.281 1.64 1.64 0 0 0 0 3.281ZM13.636 12.007a1.64 1.64 0 1 1-3.28 0 1.64 1.64 0 0 1 3.28 0ZM11.996 18.57a1.64 1.64 0 1 0 0-3.282 1.64 1.64 0 0 0 0 3.282Z"/><path fill-rule="evenodd" d="M9.075 1.984a3 3 0 0 0-3 3V19.03a3 3 0 0 0 3 3h5.843a3 3 0 0 0 3-3V4.984a3 3 0 0 0-3-3H9.075Zm-1 3a1 1 0 0 1 1-1h5.843a1 1 0 0 1 1 1V19.03a1 1 0 0 1-1 1H9.075a1 1 0 0 1-1-1V4.984Z" clip-rule="evenodd"/></svg>