<svg width="24" height="24" xmlns="http://www.w3.org/2000/svg">
    <path d="M9.369 14.28v-2.132c0-.098.035-.183.105-.253l7.655-7.655 2.631 2.631-7.662 7.655a.329.329 0 0 1-.246.106H9.72a.347.347 0 0 1-.35-.351ZM21.795 3.847a.699.699 0 0 1 0 .99L20.51 6.12 17.88 3.49l1.284-1.285a.699.699 0 0 1 .989 0l1.642 1.642Z"/>
    <path d="M3.667 4.105h11.138l-1.667 1.667H3.667v14.561h14.56v-9.456l1.668-1.667v11.123c0 .92-.747 1.667-1.667 1.667H3.667C2.747 22 2 21.254 2 20.333V5.772c0-.92.746-1.667 1.667-1.667Z"/>
</svg>