<svg width="24" height="24" viewBox="0 0 24 24" xmlns="http://www.w3.org/2000/svg">
    <path d="M1.946 10C.869 10 0 10.893 0 12s.87 2 1.946 2c1.077 0 1.946-.893 1.946-2s-.87-2-1.946-2Zm0-8C.869 2 0 2.893 0 4s.87 2 1.946 2c1.077 0 1.946-.893 1.946-2s-.87-2-1.946-2Zm0 16C.869 18 0 18.907 0 20s.882 2 1.946 2 1.946-.907 1.946-2-.87-2-1.946-2Zm5.19 3.333h15.567c.713 0 1.297-.6 1.297-1.333s-.584-1.333-1.297-1.333H7.135c-.713 0-1.297.6-1.297 1.333s.584 1.333 1.297 1.333Zm0-8h15.567c.713 0 1.297-.6 1.297-1.333s-.584-1.333-1.297-1.333H7.135c-.713 0-1.297.6-1.297 1.333s.584 1.333 1.297 1.333ZM5.837 4c0 .733.584 1.333 1.297 1.333h15.568C23.416 5.333 24 4.733 24 4s-.584-1.333-1.297-1.333H7.135c-.713 0-1.297.6-1.297 1.333Z"/>
</svg>
