<svg width="24" height="24" viewBox="0 0 24 24" fill="none" xmlns="http://www.w3.org/2000/svg">
<path fill-rule="evenodd" clip-rule="evenodd" d="M20.0375 11.1365H21.5876C21.8153 11.1365 22 11.321 22 11.5489V12.4511C22 12.6788 21.8153 12.8635 21.5876 12.8635H20.0375C19.6371 16.6198 16.6198 19.6371 12.8637 20.0375V21.5876C12.8637 21.8153 12.679 22 12.4513 22H11.5489C11.3212 22 11.1365 21.8153 11.1365 21.5876V20.0375C7.38021 19.6371 4.36289 16.6198 3.96227 12.8637H2.41237C2.18474 12.8637 2 12.679 2 12.4513V11.5489C2 11.3212 2.18474 11.1365 2.41237 11.1365H3.96227C4.36289 7.38021 7.38021 4.36289 11.1365 3.96227V2.41237C11.1365 2.18474 11.3212 2 11.5489 2H12.4511C12.6788 2 12.8635 2.18474 12.8635 2.41237V3.96227C16.6198 4.36289 19.6371 7.38021 20.0375 11.1365ZM7.54528 12.4513C7.54528 12.6789 7.36054 12.8636 7.13291 12.8636H5.79435C6.17703 15.6261 8.37373 17.8228 11.1362 18.2059V16.8673C11.1362 16.6397 11.321 16.455 11.5486 16.455H12.4511C12.6787 16.455 12.8634 16.6397 12.8634 16.8673V18.2059C15.6257 17.8228 17.8224 15.6261 18.2051 12.8638H16.8665C16.6389 12.8638 16.4541 12.6791 16.4541 12.4515V11.549C16.4541 11.3214 16.6389 11.1366 16.8665 11.1366H18.2051C17.8224 8.37414 15.6257 6.17744 12.863 5.79476V7.13332C12.863 7.36094 12.6783 7.54569 12.4506 7.54569H11.5484C11.3207 7.54569 11.136 7.36094 11.136 7.13332V5.79476C8.37373 6.17744 6.17703 8.37435 5.79435 11.1366H7.13291C7.36054 11.1366 7.54528 11.3214 7.54528 11.549V12.4513Z" fill="#272C37"/>
</svg>
