<svg width="24" height="24" xmlns="http://www.w3.org/2000/svg"><path d="M14.999 5h6C21.55 5 22 5.472 22 6.05c0 .576-.45 1.049-1 1.049h-6.001c-.55 0-1-.473-1-1.05 0-.577.45-1.049 1-1.049Zm0 5.771h6c.55 0 1.001.472 1.001 1.05 0 .577-.45 1.049-1 1.049h-6.001c-.55 0-1-.472-1-1.05 0-.577.45-1.049 1-1.049Zm0 5.771h6c.55 0 1.001.473 1.001 1.05 0 .577-.45 1.05-1 1.05h-6.001c-.55 0-1-.473-1-1.05 0-.577.45-1.05 1-1.05Zm-5.15 3.306 1.79-1.878c.2-.21.2-.535 0-.745l-1.79-1.879c-.31-.335-.85-.105-.85.368v3.767c0 .461.54.692.85.367Zm-.85-3.305h-.3c-2.351 0-4.452-1.795-4.682-4.25-.26-2.812 1.85-5.194 4.481-5.194h2.5c.55 0 1-.473 1-1.05 0-.577-.45-1.049-1-1.049h-2.5c-3.86 0-6.96 3.568-6.44 7.723.42 3.442 3.37 5.918 6.67 5.918h.27"/></svg>