<svg xmlns="http://www.w3.org/2000/svg" width="24" height="24"><path d="M2.25 19h13.756c.688 0 1.25-.563 1.25-1.25 0-.688-.562-1.25-1.25-1.25H2.251C1.563 16.5 1 17.063 1 17.75c0 .688.563 1.25 1.25 1.25Zm0-6.25h10.005c.688 0 1.25-.563 1.25-1.25 0-.688-.562-1.25-1.25-1.25H2.25C1.563 10.25 1 10.813 1 11.5c0 .688.563 1.25 1.25 1.25ZM1 5.25c0 .688.563 1.25 1.25 1.25h13.756c.688 0 1.25-.563 1.25-1.25 0-.688-.562-1.25-1.25-1.25H2.251C1.563 4 1 4.563 1 5.25Zm21.634 9.85-3.601-3.6 3.601-3.6a1.246 1.246 0 1 0-1.763-1.763l-4.49 4.488a1.244 1.244 0 0 0 0 1.762l4.49 4.488a1.246 1.246 0 0 0 1.763 0c.475-.488.488-1.287 0-1.775Z"/></svg>