<svg xmlns="http://www.w3.org/2000/svg" width="24" height="24" fill="none"><path fill="#6C6C6C" fill-rule="evenodd" d="M10 2a3 3 0 0 0-3 3v10a3 3 0 0 0 3 3h10a3 3 0 0 0 3-3V5a3 3 0 0 0-3-3H10Zm10 2H10a1 1 0 0 0-1 1v10a1 1 0 0 0 1 1h10a1 1 0 0 0 1-1V5a1 1 0 0 0-1-1Z" clip-rule="evenodd"/><path fill="#6C6C6C" d="M4 9.5a.5.5 0 0 1 .5-.5 1 1 0 1 0 0-2A2.5 2.5 0 0 0 2 9.5v9a4 4 0 0 0 4 4h9.5A2.5 2.5 0 0 0 18 20a1 1 0 1 0-2 0 .5.5 0 0 1-.5.5H6a2 2 0 0 1-2-2v-9Z"/><rect width="12" height="2" x="10.05" y="13.535" fill="#6C6C6C" rx="1" transform="rotate(-45 10.05 13.535)"/><rect width="12" height="2" x="11.464" y="5.05" fill="#6C6C6C" rx="1" transform="rotate(45 11.464 5.05)"/></svg>