<svg width="24" height="24" viewBox="0 0 24 24" fill="none" xmlns="http://www.w3.org/2000/svg">
<path d="M21.5577 4.51166C22.1323 3.93708 22.1323 3.00551 21.5577 2.43093C20.9831 1.85636 20.0515 1.85636 19.477 2.43093L2.43093 19.477C1.85636 20.0516 1.85636 20.9832 2.43093 21.5578C3.0055 22.1323 3.93707 22.1323 4.51165 21.5578L21.5577 4.51166Z" fill="#272C37"/>
<path d="M21.5691 15.9991C22.1436 15.4245 22.1436 14.4929 21.5691 13.9183C20.9945 13.3438 20.0629 13.3438 19.4884 13.9183L13.9184 19.4883C13.3438 20.0629 13.3438 20.9945 13.9184 21.5691C14.4929 22.1436 15.4245 22.1436 15.9991 21.5691L21.5691 15.9991Z" fill="#272C37"/>
</svg>
