<svg xmlns="http://www.w3.org/2000/svg" width="24" height="24"><path fill-rule="evenodd" d="M4.5 5c-.31 0-.5.238-.5.455v2.454c0 .217.19.455.5.455h15c.31 0 .5-.238.5-.455V5.455c0-.217-.19-.455-.5-.455h-15Zm0 10.636c-.31 0-.5.238-.5.455v2.454c0 .217.19.455.5.455h15c.31 0 .5-.238.5-.454V16.09c0-.217-.19-.455-.5-.455h-15ZM4.5 3C3.12 3 2 4.099 2 5.455v2.454c0 1.356 1.12 2.455 2.5 2.455h15c1.38 0 2.5-1.1 2.5-2.455V5.455C22 4.099 20.88 3 19.5 3h-15Zm0 10.636c-1.38 0-2.5 1.1-2.5 2.455v2.454C2 19.902 3.12 21 4.5 21h15c1.38 0 2.5-1.099 2.5-2.454V16.09c0-1.356-1.12-2.455-2.5-2.455h-15Z" clip-rule="evenodd"/></svg>