<svg width="24" height="24" xmlns="http://www.w3.org/2000/svg"><path d="M3.176 14.286H5.53c.647 0 1.177-.515 1.177-1.143v-2.286c0-.628-.53-1.143-1.177-1.143H3.176C2.53 9.714 2 10.23 2 10.857v2.286c0 .628.53 1.143 1.176 1.143Zm0 5.714H5.53c.647 0 1.177-.514 1.177-1.143v-2.286c0-.628-.53-1.142-1.177-1.142H3.176C2.53 15.429 2 15.943 2 16.57v2.286C2 19.486 2.53 20 3.176 20Zm0-11.429H5.53c.647 0 1.177-.514 1.177-1.142V5.143C6.706 4.514 6.176 4 5.529 4H3.176C2.53 4 2 4.514 2 5.143v2.286c0 .628.53 1.142 1.176 1.142Zm5.883 5.715h11.764c.648 0 1.177-.515 1.177-1.143v-2.286c0-.628-.53-1.143-1.177-1.143H9.06c-.647 0-1.177.515-1.177 1.143v2.286c0 .628.53 1.143 1.177 1.143Zm0 5.714h11.764c.648 0 1.177-.514 1.177-1.143v-2.286c0-.628-.53-1.142-1.177-1.142H9.06c-.647 0-1.177.514-1.177 1.142v2.286c0 .629.53 1.143 1.177 1.143ZM7.882 5.143v2.286c0 .628.53 1.142 1.177 1.142h11.764c.648 0 1.177-.514 1.177-1.142V5.143C22 4.514 21.47 4 20.823 4H9.06c-.647 0-1.177.514-1.177 1.143Z"/></svg>