<svg width="24" height="24" viewBox="0 0 24 24" fill="none" xmlns="http://www.w3.org/2000/svg">
<path fill-rule="evenodd" clip-rule="evenodd" d="M9.48805 13.25V19.5C9.48805 20.875 10.6185 22 12.0001 22C13.3818 22 14.5122 20.875 14.5122 19.5V13.25C14.5122 13.25 18.8205 7.7375 21.7345 4.0125C22.3751 3.1875 21.7848 2 20.7297 2H3.25806C2.21554 2 1.6252 3.1875 2.26578 4.0125C5.17981 7.7375 9.48805 13.25 9.48805 13.25ZM3.2611 3.25C4.71752 5.11174 6.52111 7.41858 7.96105 9.26058L10.4787 12.4816L9.48805 13.25L10.4795 12.4826L10.7441 12.8211V19.5C10.7441 20.1846 11.3122 20.75 12.0001 20.75C12.6881 20.75 13.2562 20.1846 13.2562 19.5V12.8211L16.0392 9.26058C17.4791 7.4187 19.2826 5.11203 20.7389 3.25035C20.7365 3.25015 20.7334 3.25 20.7297 3.25H3.2611Z" fill="#272C37"/>
</svg>
